<?xml version="1.0" standalone="no"?>
<!DOCTYPE svg PUBLIC "-//W3C//DTD SVG 20010904//EN"
 "http://www.w3.org/TR/2001/REC-SVG-20010904/DTD/svg10.dtd">
<svg version="1.0" xmlns="http://www.w3.org/2000/svg"
 width="700.000000pt" height="700.000000pt" viewBox="0 0 700.000000 700.000000"
 preserveAspectRatio="xMidYMid meet">
<metadata>
Created by potrace 1.11, written by Peter Selinger 2001-2013
</metadata>
<g transform="translate(0.000000,700.000000) scale(0.100000,-0.100000)"
fill="#000000" stroke="none">
<path d="M224 5889 c-3 -6 0 -52 11 -169 1 -19 6 -75 10 -125 4 -49 11 -94 15
-98 14 -16 154 -47 209 -47 72 0 123 -15 160 -46 61 -51 58 36 60 -1665 l1
-1555 -97 -23 c-54 -13 -131 -36 -171 -51 -148 -57 -189 -116 -179 -260 4 -48
8 -93 11 -101 2 -8 7 -26 10 -40 l6 -27 879 0 c484 0 885 -3 892 -7 8 -6 9
-43 4 -144 -17 -298 -13 -351 32 -423 50 -81 130 -117 298 -132 l41 -3 18 161
c10 88 19 172 21 186 2 14 6 54 10 90 4 36 9 81 11 100 5 35 9 73 20 165 3 28
7 67 10 88 2 20 6 54 8 75 11 87 20 168 21 182 3 35 18 166 20 180 2 9 6 47
10 85 3 39 8 81 10 95 2 14 7 54 10 90 4 36 9 79 11 95 2 17 6 57 9 90 3 33 8
71 10 85 4 25 10 80 20 180 3 30 7 71 10 90 2 19 7 59 11 89 l6 54 -126 -6
c-206 -10 -244 -39 -290 -222 -14 -55 -27 -111 -30 -125 -11 -59 -46 -218 -54
-246 -32 -106 -100 -179 -202 -217 -48 -17 -470 -127 -489 -127 -9 0 -11 389
-9 1533 l3 1532 21 46 c34 74 91 103 274 140 109 22 155 44 156 76 1 19 9 81
25 181 5 34 12 84 15 109 3 26 8 51 10 55 3 4 2 9 -3 9 -31 5 -1736 3 -1739
-2z"/>
<path d="M5485 5866 c-10 -58 -11 -161 -2 -211 18 -103 74 -148 262 -214 49
-18 91 -33 92 -35 2 -2 -13 -54 -33 -117 -19 -63 -54 -172 -75 -244 -44 -141
-109 -351 -159 -510 -18 -55 -47 -149 -65 -210 -18 -60 -65 -213 -105 -340
-112 -359 -158 -509 -203 -657 -23 -76 -44 -138 -47 -138 -3 0 -22 21 -42 48
-24 31 -48 83 -71 157 -59 185 -103 324 -145 460 -90 287 -204 656 -237 760
-35 112 -102 330 -156 510 -17 55 -35 115 -41 133 -16 53 -12 131 9 155 26 28
85 53 181 73 60 13 82 22 83 33 0 9 2 25 4 36 4 19 13 83 21 150 10 83 16 133
20 157 l4 26 -793 0 -794 -1 14 -40 c8 -23 16 -86 19 -141 3 -56 10 -116 15
-134 15 -47 61 -88 142 -126 114 -54 166 -112 211 -236 65 -178 209 -577 216
-600 5 -14 40 -117 80 -230 66 -189 304 -889 318 -935 3 -11 92 -279 197 -595
105 -316 270 -812 365 -1103 173 -523 174 -527 201 -527 23 0 30 7 42 43 8 23
43 116 77 207 61 166 88 241 219 620 39 113 74 212 77 220 3 8 4 15 3 15 -1 0
6 18 16 40 9 22 27 72 40 110 12 39 59 174 104 300 45 127 84 237 86 245 2 8
25 74 50 145 26 72 69 193 95 270 26 77 80 232 120 345 40 113 107 306 150
430 43 124 111 317 150 430 40 113 78 223 85 245 47 142 120 339 145 392 45
91 104 150 196 198 88 45 103 64 125 170 7 33 13 62 14 65 9 38 15 105 10 120
-3 10 -22 29 -41 41 -36 22 -37 22 -640 23 l-604 2 -5 -30z"/>
</g>
</svg>
